<svg xmlns="http://www.w3.org/2000/svg" xmlns:xlink="http://www.w3.org/1999/xlink" version="1.1" width="1080" height="1080" viewBox="0 0 1080 1080" xml:space="preserve">
<desc>Created with Fabric.js 5.2.4</desc>
<defs>
</defs>
<g transform="matrix(0 0 0 0 0 0)" id="a5602ab2-2436-4d96-b906-969f658a6a41">
</g>
<g transform="matrix(1 0 0 1 540 540)" id="6bef56e9-830c-458f-b607-61dd00dd3ab1">
<rect style="stroke: none; stroke-width: 1; stroke-dasharray: none; stroke-linecap: butt; stroke-dashoffset: 0; stroke-linejoin: miter; stroke-miterlimit: 4; fill: rgb(255,255,255); fill-rule: nonzero; opacity: 1; visibility: hidden;" vector-effect="non-scaling-stroke" x="-540" y="-540" rx="0" ry="0" width="1080" height="1080"/>
</g>
<g transform="matrix(5.18 0 0 5.18 540 540)">
<path style="stroke: none; stroke-width: 1; stroke-dasharray: none; stroke-linecap: butt; stroke-dashoffset: 0; stroke-linejoin: miter; stroke-miterlimit: 4; fill: rgb(0,0,0); fill-rule: nonzero; opacity: 1;" transform=" translate(-43.5, -53.6)" d="M 97.6 41.5 L 88.5 39.4 C 87.7 36.3 86.6 33.4 85.1 30.7 L 90.19999999999999 22.799999999999997 C 91.39999999999999 20.9 91.19999999999999 18.499999999999996 89.6 16.9 L 77.7 5.1 C 76.10000000000001 3.4999999999999996 73.7 3.3 71.8 4.5 L 63.9 9.6 C 61.199999999999996 8.1 58.3 7 55.2 6.199999999999999 L 53.1 -2.9000000000000004 C 52.7 -4.4 50.9 -6 48.7 -6 L 48.6 -6 L 34.6 -6 C 32.4 -6 30.6 -4.4 30.3 -2.2 L 28.2 6.8999999999999995 C 25.099999999999998 7.699999999999999 22.2 8.799999999999999 19.5 10.299999999999999 L 11.6 5.199999999999999 C 9.7 3.999999999999999 7.3 4.199999999999999 5.699999999999999 5.799999999999999 L -5.1 17.6 C -6.699999999999999 19.200000000000003 -6.8999999999999995 21.6 -5.699999999999999 23.5 L -0.5999999999999996 31.4 C -2.0999999999999996 34.1 -3.1999999999999997 37 -3.9999999999999996 40.099999999999994 L -13.1 42.199999999999996 C -14.4 42.7 -16 44.5 -16 46.7 L -16 60.7 C -16 62.900000000000006 -14.4 64.7 -12.2 65 L -3.0999999999999996 67.1 C -2.3 70.19999999999999 -1.1999999999999997 73.1 0.30000000000000027 75.8 L -4.799999999999999 83.7 C -5.999999999999999 85.60000000000001 -5.799999999999999 88 -4.199999999999999 89.60000000000001 L 7.600000000000001 101.4 C 9.200000000000001 103 11.600000000000001 103.2 13.500000000000002 102 L 21.400000000000002 96.9 C 24.1 98.4 27 99.5 30.1 100.30000000000001 L 32.2 109.4 C 32.6 111.60000000000001 34.400000000000006 113.2 36.5 113.2 L 50.5 113.2 C 52.7 113.2 54.5 111.60000000000001 54.8 109.4 L 56.9 100.30000000000001 C 60 99.50000000000001 62.9 98.4 65.6 96.9 L 73.5 102 C 75.4 103.2 77.8 103 79.4 101.4 L 91.2 89.60000000000001 C 92.8 88.00000000000001 93 85.60000000000001 91.8 83.7 L 86.7 75.8 C 88.2 73.1 89.3 70.2 90.10000000000001 67.1 L 99.2 65 C 101.4 64.6 103 62.8 103 60.7 L 103 46.7 C 101.4 44.5 99.8 42.7 97.6 41.5 z M 41.7 71.7 C 30.700000000000003 71.7 21.700000000000003 62.7 21.700000000000003 51.7 C 21.700000000000003 40.7 30.700000000000003 31.700000000000003 41.7 31.700000000000003 C 52.7 31.700000000000003 61.7 40.7 61.7 51.7 C 61.7 62.7 52.7 71.7 41.7 71.7 z" stroke-linecap="round"/>
</g>
</svg>