<?xml version="1.0" encoding="UTF-8"?>
<svg version="1.1" xmlns="http://www.w3.org/2000/svg" width="128" height="128">
<path d="M0 0 C0.68578125 0.71929687 1.3715625 1.43859375 2.078125 2.1796875 C4.44338698 4.41995596 5.67913714 4.43583678 8.875 4.625 C12.40365807 5.16626909 13.62153084 5.53656838 15.9140625 8.34375 C16.94870443 10.15819595 17.92884986 12.00513954 18.84375 13.8828125 C19.2253125 14.58148438 19.606875 15.28015625 20 16 C20.66 16 21.32 16 22 16 C24.00212229 16.32033957 26.00239695 16.65259077 28 17 C30.33718419 22.69688645 31.15730629 28.27163258 29.3125 34.21484375 C27.11818329 39.12462739 24.63848173 41.19940725 20 44 C17.60503342 46.08398441 15.27550211 48.22623273 12.953125 50.390625 C11 52 11 52 9 52 C9.04640625 52.59167969 9.0928125 53.18335937 9.140625 53.79296875 C9.32199215 57.76361375 9.27427756 60.41566956 7.5625 64.0625 C3.82981444 66.88477445 0.52502162 66.55766111 -4 66 C-4.70640625 65.80792969 -5.4128125 65.61585937 -6.140625 65.41796875 C-8.66751808 64.84994867 -9.84322792 65.69053124 -12 67 C-12 67.99 -12 68.98 -12 70 C-14.31 70 -16.62 70 -19 70 C-19 69.34 -19 68.68 -19 68 C-19.94875 67.54625 -20.8975 67.0925 -21.875 66.625 C-25 65 -25 65 -27 63 C-27.30690654 60.42314322 -27.51014493 57.95896697 -27.625 55.375 C-27.74875 52.94125 -27.8725 50.5075 -28 48 C-34.93 48 -41.86 48 -49 48 C-48.9175 49.8975 -48.835 51.795 -48.75 53.75 C-48.58860323 57.46212576 -48.51471478 59.30624719 -50.6640625 62.37890625 C-53.57184932 64.39685196 -55.12602317 64.39027089 -58.625 64.1875 C-62.46067567 63.86561727 -62.46067567 63.86561727 -66 65 C-67.93123211 65.19968426 -69.8719689 65.31278815 -71.8125 65.375 C-72.85019531 65.42398438 -73.88789062 65.47296875 -74.95703125 65.5234375 C-79.15451955 64.80140485 -80.5291116 63.4348064 -83 60 C-83.36771245 57.1612599 -83.48630804 54.98179849 -83.3125 52.1875 C-83.28994141 51.49462891 -83.26738281 50.80175781 -83.24414062 50.08789062 C-83.18562661 48.39098427 -83.0959548 46.69520139 -83 45 C-84.32 44.67 -85.64 44.34 -87 44 C-86.67 41.69 -86.34 39.38 -86 37 C-85.34 37 -84.68 37 -84 37 C-83.85304688 36.09121094 -83.85304688 36.09121094 -83.703125 35.1640625 C-80.71390588 18.4141278 -71.71795263 4.193045 -58 -6 C-40.79707735 -16.78572033 -16.12324019 -10.18309907 0 0 Z " fill="#589A5D" transform="translate(95,40)"/>
<path d="M0 0 C3.6534508 1.8673193 5.52629845 3.11478682 7 7 C-7.73584906 16.16172507 -7.73584906 16.16172507 -12.625 15.8125 C-15.36134822 15.76646132 -15.36134822 15.76646132 -17.6875 18.75 C-21.80282274 24.53369682 -23.02026146 28.88189679 -22 36 C-20.16658535 38.50520579 -20.16658535 38.50520579 -18 40 C-18 40.66 -18 41.32 -18 42 C-24.38630311 42.02549226 -30.77259295 42.04292633 -37.15893555 42.05493164 C-39.32853689 42.05994003 -41.49813489 42.06674863 -43.66772461 42.07543945 C-46.79802274 42.08765876 -49.928276 42.0932634 -53.05859375 42.09765625 C-54.01833603 42.10281754 -54.97807831 42.10797882 -55.96690369 42.11329651 C-61.72653655 42.11376923 -67.28682284 41.73941254 -73 41 C-72.05926294 37.3154465 -71.0495139 33.65504623 -70 30 C-69.74476562 29.10152344 -69.48953125 28.20304687 -69.2265625 27.27734375 C-64.78695165 13.44938153 -54.91740306 0.79567726 -42 -6 C-29.09885933 -10.30038022 -11.91241306 -5.62768674 0 0 Z " fill="#94CF8F" transform="translate(87,41)"/>
<path d="M0 0 C4.01271914 5.06918561 3.44742654 10.39500897 3.59375 16.6015625 C3.69813539 19.96212941 3.69813539 19.96212941 5.53125 21.9609375 C6.0159375 22.30382812 6.500625 22.64671875 7 23 C4.525 25.475 4.525 25.475 2 28 C1.34 26.68 0.68 25.36 0 24 C-0.495 24.45375 -0.99 24.9075 -1.5 25.375 C-8.59581313 29.98727854 -17.84010231 29.91274023 -26 29 C-31.12125629 27.29728052 -34.97454882 25.53817678 -38 21 C-37.51660156 20.29746094 -37.03320312 19.59492187 -36.53515625 18.87109375 C-34.84144299 15.70346208 -34.65237875 13.61485726 -34.4375 10.0625 C-33.9025173 6.31762108 -33.58749273 4.56213334 -30.828125 1.921875 C-21.21715435 -3.93569883 -10.17169933 -5.1750751 0 0 Z " fill="#94CE8F" transform="translate(110,58)"/>
<path d="M0 0 C4.13358448 2.83445793 6.47602763 7.73821059 9 12 C9.78375 11.814375 10.5675 11.62875 11.375 11.4375 C14 11 14 11 16 12 C18.51548444 17.58996542 19.10581102 23.44945004 17.27734375 29.3203125 C16.34301503 31.43106321 15.44037387 33.19608128 14 35 C11.25 36 11.25 36 9 36 C9 35.34 9 34.68 9 34 C8.01 33.67 7.02 33.34 6 33 C5.95101562 31.97519531 5.90203125 30.95039062 5.8515625 29.89453125 C5.77648929 28.5338294 5.70094345 27.17315356 5.625 25.8125 C5.5940625 25.13896484 5.563125 24.46542969 5.53125 23.77148438 C5.30075147 19.83380119 4.9526814 16.46568619 3 13 C-5.97722237 9.63354161 -15.28227965 10.0697476 -24 14 C-26.74075723 15.14441949 -26.74075723 15.14441949 -29 17 C-29.88812046 19.73819719 -29.88812046 19.73819719 -30.0625 22.8125 C-30.7481478 28.00203613 -31.25379702 31.25379702 -35 35 C-38.125 35.5625 -38.125 35.5625 -41 35 C-43.84993189 30.72510217 -43.7423535 27.01830969 -43 22 C-41.69817895 19.01582558 -40.06073919 16.51352132 -38 14 C-37.55269531 13.43152344 -37.10539062 12.86304688 -36.64453125 12.27734375 C-35 11 -35 11 -32.80859375 11.05078125 C-28.65876674 10.97574961 -25.67884037 9.10479838 -22.0625 7.1875 C-21.37220703 6.83107422 -20.68191406 6.47464844 -19.97070312 6.10742188 C-16.88682364 4.51432773 -13.81543577 2.90138806 -10.75390625 1.265625 C-6.72131953 -0.5876489 -4.40733637 -0.49760249 0 0 Z " fill="#0D5F6B" transform="translate(107,45)"/>
<path d="M0 0 C2.88008998 0.83371026 5.53725514 1.72964174 8.1328125 3.24609375 C16.15550201 7.91937659 23.93626021 8.25731087 32.9765625 6.3828125 C36.86975421 5.26883139 40.40810151 3.86908745 44 2 C44.375 4.6875 44.375 4.6875 44 8 C42.18573316 10.16704095 40.38051466 11.38125003 38 13 C37.34 13 36.68 13 36 13 C36.04640625 13.59167969 36.0928125 14.18335937 36.140625 14.79296875 C36.32199215 18.76361375 36.27427756 21.41566956 34.5625 25.0625 C30.82981444 27.88477445 27.52502162 27.55766111 23 27 C22.29359375 26.80792969 21.5871875 26.61585937 20.859375 26.41796875 C18.33248192 25.84994867 17.15677208 26.69053124 15 28 C15 28.99 15 29.98 15 31 C12.69 31 10.38 31 8 31 C8 30.34 8 29.68 8 29 C7.01 28.34 6.02 27.68 5 27 C8.96 26.505 8.96 26.505 13 26 C10.53721199 23.53721199 8.29323018 23.00228745 5 22 C4.79503906 20.92878906 4.59007812 19.85757813 4.37890625 18.75390625 C4.10697291 17.35673149 3.83482648 15.95959819 3.5625 14.5625 C3.42779297 13.85544922 3.29308594 13.14839844 3.15429688 12.41992188 C2.71593102 8.91570736 2.71593102 8.91570736 1 6 C-1.21687994 5.84126045 -3.43855298 5.74866163 -5.66015625 5.68359375 C-6.65685585 5.6524221 -6.65685585 5.6524221 -7.6736908 5.62062073 C-9.80318543 5.55506342 -11.93280668 5.49621215 -14.0625 5.4375 C-15.50326847 5.39432061 -16.94402399 5.35070651 -18.38476562 5.30664062 C-21.9230404 5.19937607 -25.46145869 5.09812629 -29 5 C-29 4.67 -29 4.34 -29 4 C-19.1 4 -9.2 4 1 4 C1 3.34 1 2.68 1 2 C0.34 1.67 -0.32 1.34 -1 1 C-0.67 0.67 -0.34 0.34 0 0 Z " fill="#599D60" transform="translate(68,79)"/>
<path d="M0 0 C0.99 0.66 1.98 1.32 3 2 C-2.75 7 -2.75 7 -5 7 C-4.95359375 7.59167969 -4.9071875 8.18335937 -4.859375 8.79296875 C-4.67800785 12.76361375 -4.72572244 15.41566956 -6.4375 19.0625 C-10.17018556 21.88477445 -13.47497838 21.55766111 -18 21 C-18.70640625 20.80792969 -19.4128125 20.61585937 -20.140625 20.41796875 C-22.66751808 19.84994867 -23.84322792 20.69053124 -26 22 C-26 22.99 -26 23.98 -26 25 C-28.31 25 -30.62 25 -33 25 C-33 24.34 -33 23.68 -33 23 C-33.99 22.34 -34.98 21.68 -36 21 C-34.7625 20.855625 -33.525 20.71125 -32.25 20.5625 C-28.31176085 20.06935189 -24.76717015 19.25572338 -21 18 C-20.67 17.34 -20.34 16.68 -20 16 C-19.01 16 -18.02 16 -17 16 C-14.95228486 14.46072051 -14.95228486 14.46072051 -12.9375 12.5 C-9.20833333 9 -9.20833333 9 -7 9 C-6.731875 8.195625 -6.46375 7.39125 -6.1875 6.5625 C-5.795625 5.716875 -5.40375 4.87125 -5 4 C-4.01 3.67 -3.02 3.34 -2 3 C-1.34 2.01 -0.68 1.02 0 0 Z " fill="#5B9861" transform="translate(109,85)"/>
<path d="M0 0 C4.29 0.33 8.58 0.66 13 1 C13 4.96 13 8.92 13 13 C10.49860398 14.25069801 8.72607309 14.13302467 5.9375 14.125 C4.58978516 14.12886719 4.58978516 14.12886719 3.21484375 14.1328125 C1 14 1 14 0 13 C-0.14393457 8.66469082 -0.04212061 4.33842269 0 0 Z " fill="#8CC487" transform="translate(17,86)"/>
<path d="M0 0 C2.14698202 0.64200436 4.29255953 1.28870746 6.4375 1.9375 C8.22994141 2.47697266 8.22994141 2.47697266 10.05859375 3.02734375 C13 4 13 4 14 5 C14.23961213 9.23314767 14.32488647 12.36736489 12 16 C11.34 16 10.68 16 10 16 C9.67 16.66 9.34 17.32 9 18 C4.24352332 17.20725389 4.24352332 17.20725389 2 15 C0.72170178 10.02944986 0.30815978 5.1129367 0 0 Z " fill="#8BC289" transform="translate(71,86)"/>
<path d="M0 0 C2.29013653 3.4352048 2.17842973 4.985331 2 9 C1.13375 8.67 0.2675 8.34 -0.625 8 C-6.5629676 6.25426211 -12.87784069 6.8471583 -19 7 C-7.60481599 -2.23671059 -7.60481599 -2.23671059 0 0 Z " fill="#589266" transform="translate(107,49)"/>
<path d="M0 0 C0.66 0.33 1.32 0.66 2 1 C2 1.66 2 2.32 2 3 C-2.38461538 6 -2.38461538 6 -5 6 C-5 6.99 -5 7.98 -5 9 C-7.31 9 -9.62 9 -12 9 C-12 8.34 -12 7.68 -12 7 C-12.99 6.34 -13.98 5.68 -15 5 C-13.7625 4.855625 -12.525 4.71125 -11.25 4.5625 C-7.31176085 4.06935189 -3.76717015 3.25572338 0 2 C0 1.34 0 0.68 0 0 Z " fill="#A6CAC1" transform="translate(88,101)"/>
<path d="M0 0 C0.33 0 0.66 0 1 0 C1.05399736 1.45792884 1.09279177 2.91642712 1.125 4.375 C1.14820312 5.18710938 1.17140625 5.99921875 1.1953125 6.8359375 C1 9 1 9 -1 11 C-2.32 11 -3.64 11 -5 11 C-5.33 9.68 -5.66 8.36 -6 7 C-4.35 6.67 -2.7 6.34 -1 6 C-0.67 4.02 -0.34 2.04 0 0 Z " fill="#67A16A" transform="translate(112,66)"/>
<path d="M0 0 C0.99 0.66 1.98 1.32 3 2 C-2.75 7 -2.75 7 -5 7 C-5 9.97 -5 12.94 -5 16 C-5.33 16 -5.66 16 -6 16 C-6.2226746 14.56465159 -6.42761906 13.12654475 -6.625 11.6875 C-6.74101563 10.88699219 -6.85703125 10.08648437 -6.9765625 9.26171875 C-7 7 -7 7 -5 4 C-4.01 3.67 -3.02 3.34 -2 3 C-1.34 2.01 -0.68 1.02 0 0 Z " fill="#9AC4B2" transform="translate(109,85)"/>
<path d="M0 0 C0.99 0.33 1.98 0.66 3 1 C3.33 1.99 3.66 2.98 4 4 C2.35 5.32 0.7 6.64 -1 8 C-1.625 5.6875 -1.625 5.6875 -2 3 C-1.34 2.01 -0.68 1.02 0 0 Z " fill="#76AF83" transform="translate(113,78)"/>
<path d="M0 0 C0.99 0.33 1.98 0.66 3 1 C3 2.32 3 3.64 3 5 C1.68 5 0.36 5 -1 5 C-0.67 3.35 -0.34 1.7 0 0 Z " fill="#5FA261" transform="translate(82,75)"/>
<path d="M0 0 C1.65 1.65 3.3 3.3 5 5 C4.67 5.66 4.34 6.32 4 7 C3.01 6.67 2.02 6.34 1 6 C0.67 4.02 0.34 2.04 0 0 Z " fill="#8EC698" transform="translate(71,86)"/>
</svg>
