<?xml version="1.0" encoding="UTF-8"?>
<svg version="1.1" xmlns="http://www.w3.org/2000/svg" width="600" height="600">
<path d="M0 0 C0.55075195 0.4439209 1.10150391 0.8878418 1.66894531 1.34521484 C15.75931855 12.73392962 27.83572695 25.91050324 38.74121094 40.34716797 C39.96667343 41.95624111 41.2212864 43.54298172 42.4765625 45.12890625 C53.43104394 59.0219708 62.66833592 73.93084283 71.6875 89.125 C72.08315155 89.79133453 72.4788031 90.45766907 72.88644409 91.14419556 C75.22303779 95.08679185 77.53870768 99.0409339 79.83782959 103.00549316 C81.01774239 105.03044934 82.21311278 107.04578621 83.40869141 109.06152344 C88.32687115 117.45059967 92.07453745 125.68215933 95 135 C95.35513672 136.07604492 95.71027344 137.15208984 96.07617188 138.26074219 C100.89758167 153.03902672 104.93351515 168.01220807 108.45568848 183.14874268 C108.85340141 184.85364387 109.25723864 186.55713061 109.66784668 188.25897217 C112.75590861 201.14275056 116.39579895 217.46516254 111.1171875 230.234375 C108.63878173 234.15129601 105.26269897 237.33192719 100.77734375 238.65625 C100.19082031 238.7696875 99.60429688 238.883125 99 239 C99.474375 240.155 99.94875 241.31 100.4375 242.5 C106.96191764 258.3855386 103.5199493 280.89766342 101.6875 297.4375 C101.51105957 299.04105347 101.51105957 299.04105347 101.33105469 300.67700195 C98.8673487 320.88285666 92.50515651 336.17949476 76.4375 349.125 C70.72642321 352.2401328 65.22715088 353.07606275 58.78125 352.890625 C53.69268275 352.85106015 49.23139582 354.01582929 44.375 355.4375 C35.26607667 358.03485274 26.57832574 359.15998288 17.140625 359.60546875 C13.32881141 359.80357376 9.72863004 360.20734906 6 361 C-4.05551488 361.95543054 -12.5197095 359.83677087 -20.6875 353.8125 C-34.98905201 341.75833474 -41.64191835 326.4210537 -44 308 C-44.50144531 308.32871094 -45.00289063 308.65742188 -45.51953125 308.99609375 C-54.26625925 314.4944628 -63.58003964 318.7985725 -73 323 C-73.66773438 323.29970703 -74.33546875 323.59941406 -75.0234375 323.90820312 C-95.65851289 332.96280571 -118.45273199 335.23008702 -140.75 335.25 C-141.92752838 335.25151062 -141.92752838 335.25151062 -143.12884521 335.25305176 C-176.80665024 335.22409625 -209.44431112 332.11989603 -238 313 C-237.95875 314.2375 -237.9175 315.475 -237.875 316.75 C-237.90629252 326.68537533 -239.09932761 336.55148822 -245.921875 344.13671875 C-263.21677793 360.76420093 -283.93240041 368.42918863 -307.66821289 368.29614258 C-326.42182156 367.92021386 -343.09877069 362.39073585 -356.44140625 348.85546875 C-369.95302299 333.7760919 -371.8972039 316.14302805 -372.8515625 296.62890625 C-372.91532074 295.42233871 -372.97907898 294.21577118 -373.04476929 292.97264099 C-373.17698353 290.44944186 -373.30623975 287.92608609 -373.43261719 285.40258789 C-373.62575997 281.54733051 -373.82771328 277.69261198 -374.03125 273.83789062 C-374.15936085 271.37242211 -374.28698238 268.90692811 -374.4140625 266.44140625 C-374.47340973 265.29652237 -374.53275696 264.15163849 -374.59390259 262.97206116 C-374.85964847 257.6407434 -375.07180509 252.33799061 -375 247 C-375.9075 246.773125 -376.815 246.54625 -377.75 246.3125 C-382.0381147 244.58076137 -383.95989786 242.08020427 -386 238 C-386.12148305 236.37834248 -386.17543652 234.75115673 -386.1875 233.125 C-386.20876953 231.82949219 -386.20876953 231.82949219 -386.23046875 230.5078125 C-385.98859252 227.8758712 -385.32983541 226.26019456 -384 224 C-384.70125 223.938125 -385.4025 223.87625 -386.125 223.8125 C-390.02041945 222.71162059 -392.1229071 220.8131575 -395 218 C-400.84689283 206.16840878 -396.51358337 186.41283096 -392.5 174.3125 C-381.82995797 143.90619389 -366.27046673 114.73386784 -350 87 C-349.4951709 86.12956055 -348.9903418 85.25912109 -348.47021484 84.36230469 C-337.95016257 66.24012154 -325.90106838 49.49202827 -313 33 C-312.09664917 31.82522095 -312.09664917 31.82522095 -311.17504883 30.62670898 C-306.23979969 24.30290032 -300.88798213 18.57538732 -295.1875 12.9375 C-294.30312256 12.05916504 -293.41874512 11.18083008 -292.50756836 10.27587891 C-286.59236643 4.45039187 -280.62983904 -0.99462382 -274 -6 C-273.00355469 -6.79019531 -272.00710938 -7.58039063 -270.98046875 -8.39453125 C-197.03815334 -66.89026418 -106.83983337 -64.26840123 0 0 Z " fill="#589F5C" transform="translate(442,144)"/>
<path d="M0 0 C3.40616881 0.76517364 6.82142139 1.47884591 10.23876953 2.19238281 C69.66790992 14.82582774 114.84391909 39.3708335 151.04736328 88.68457031 C151.77125244 89.65523437 151.77125244 89.65523437 152.50976562 90.64550781 C161.51462386 102.7466543 169.30109328 115.59140649 176.98881531 128.55149841 C179.13040998 132.16033855 181.31081792 135.7418033 183.52001953 139.30957031 C191.17864293 151.87514516 195.94291333 164.5880304 200.04736328 178.68457031 C200.35512695 179.71130859 200.66289063 180.73804688 200.97998047 181.79589844 C204.44880842 193.38765579 207.48240304 205.0327072 209.98486328 216.87207031 C210.19651123 217.86980469 210.40815918 218.86753906 210.6262207 219.89550781 C211.57070708 224.55963809 212.31285779 228.89762387 212.04736328 233.68457031 C208.08969657 234.00587934 204.13121203 234.31568119 200.17236328 234.62207031 C198.96539795 234.71705811 197.75843262 234.8120459 196.51489258 234.90991211 C190.25583634 235.3800626 184.02286666 235.74675309 177.74658203 235.86425781 C176.5894873 235.88883057 175.43239258 235.91340332 174.24023438 235.9387207 C172.03639231 235.97676189 169.83209612 235.99512937 167.62792969 235.9909668 C160.93376347 236.11536788 156.14628817 237.14378528 151.04736328 241.68457031 C147.92961661 246.36119032 148.33276603 251.21320956 149.04736328 256.68457031 C150.39343668 259.54832806 151.55037958 260.58483402 154.04736328 262.68457031 C156.79489724 263.59960452 159.29004494 263.80722005 162.17333984 263.7980957 C163.37413177 263.79798241 163.37413177 263.79798241 164.59918213 263.79786682 C165.45348816 263.79270554 166.30779419 263.78754425 167.18798828 263.78222656 C168.51126129 263.78010414 168.51126129 263.78010414 169.86126709 263.77793884 C172.67333393 263.77235033 175.48532058 263.75979992 178.29736328 263.74707031 C180.2062163 263.74205383 182.11507056 263.73749118 184.02392578 263.73339844 C188.69843576 263.72238465 193.37288593 263.70512789 198.04736328 263.68457031 C202.40676063 272.88994359 202.64525351 281.55114446 202.48486328 291.49707031 C202.47837769 292.26548248 202.47189209 293.03389465 202.46520996 293.82559204 C202.38219652 303.3889141 202.0420183 312.87875463 200.79736328 322.37207031 C200.68835693 323.21809814 200.57935059 324.06412598 200.46704102 324.93579102 C199.37107118 331.94870607 196.98718624 339.31902374 191.04736328 343.68457031 C188.59423828 344.11816406 188.59423828 344.11816406 185.79736328 344.12207031 C179.65989845 344.41612575 174.42452452 345.90947145 168.65576172 347.86987305 C160.87355984 350.50530731 153.18890352 351.08335779 145.04736328 351.74707031 C143.98001953 351.83794922 142.91267578 351.92882812 141.81298828 352.02246094 C140.77658203 352.10818359 139.74017578 352.19390625 138.67236328 352.28222656 C137.73650391 352.35965088 136.80064453 352.4370752 135.83642578 352.5168457 C127.67244097 353.00779962 127.67244097 353.00779962 125.10595703 351.68066406 C120.89671249 347.63370365 118.85701031 343.43396353 116.98486328 337.99707031 C116.75661865 337.34343506 116.52837402 336.6897998 116.29321289 336.01635742 C115.41880011 333.20823707 114.8520574 331.2735556 115.79345703 328.43457031 C116.20724609 327.85707031 116.62103516 327.27957031 117.04736328 326.68457031 C120.21249283 321.7506919 121.9276853 318.73678417 121.04736328 312.68457031 C119.0207009 308.9806701 117.56691812 307.03094021 114.04736328 304.68457031 C115.48940332 301.50105022 117.34901415 298.69057304 119.32202148 295.81298828 C127.75718491 283.5096428 135.41867277 270.94502124 140.04736328 256.68457031 C140.43923828 255.60433594 140.83111328 254.52410156 141.23486328 253.41113281 C149.16727607 228.01639463 145.6297732 194.23806745 133.73486328 170.68457031 C128.2300576 160.57459834 121.49760237 151.14622249 115.03515625 141.63769531 C113.16534336 138.85984506 111.33444424 136.06132243 109.52001953 133.24707031 C108.71419434 132.00534058 108.71419434 132.00534058 107.89208984 130.73852539 C106.90045847 129.20699529 105.91621526 127.67064538 104.94091797 126.12866211 C99.58874726 117.92816346 91.97158141 115.97244015 83.04736328 112.68457031 C81.46955078 112.09675781 81.46955078 112.09675781 79.85986328 111.49707031 C26.48906854 91.996203 -30.7313917 87.05802323 -83.70263672 111.49707031 C-118.7571883 128.27854735 -150.42360877 159.29085983 -163.99169922 196.03613281 C-169.01213325 210.3071931 -171.23540887 223.64165989 -171.95263672 238.68457031 C-172.66548828 238.55179688 -173.37833984 238.41902344 -174.11279297 238.28222656 C-175.54945313 238.01732422 -175.54945313 238.01732422 -177.01513672 237.74707031 C-177.95486328 237.57304687 -178.89458984 237.39902344 -179.86279297 237.21972656 C-180.88244141 237.043125 -181.90208984 236.86652344 -182.95263672 236.68457031 C-183.95423828 236.50410156 -184.95583984 236.32363281 -185.98779297 236.13769531 C-201.15913934 234.40382716 -216.94181103 234.46576354 -231.63232422 238.80957031 C-234.89772594 239.67009971 -237.59466225 239.84887487 -240.95263672 239.68457031 C-240.63166016 238.6984375 -240.31068359 237.71230469 -239.97998047 236.69628906 C-238.63778819 231.99684539 -238.57090317 227.29335931 -238.47412109 222.44042969 C-238.06257833 211.58975336 -234.4668771 201.68919764 -230.20263672 191.80957031 C-229.72874512 190.70315186 -229.25485352 189.5967334 -228.76660156 188.45678711 C-219.59969643 167.40049701 -208.96927291 147.02989621 -197.41210938 127.19335938 C-196.03135166 124.8198789 -194.66761337 122.43745499 -193.30810547 120.05175781 C-185.37741119 106.22209787 -176.33245965 93.38074913 -166.70263672 80.68457031 C-166.04118652 79.81219727 -165.37973633 78.93982422 -164.69824219 78.04101562 C-151.8860929 61.3155589 -137.02527721 46.06662055 -119.95263672 33.68457031 C-119.31036133 33.20858398 -118.66808594 32.73259766 -118.00634766 32.2421875 C-97.34662677 16.94862788 -75.25341244 4.24578543 -49.95263672 -1.31542969 C-49.19587646 -1.49058105 -48.43911621 -1.66573242 -47.65942383 -1.84619141 C-31.73627609 -5.33828739 -15.73221836 -3.57163876 0 0 Z " fill="#96CF90" transform="translate(312.95263671875,122.3154296875)"/>
<path d="M0 0 C2.05415084 0.73319952 4.13208708 1.399494 6.21533203 2.04541016 C17.10822633 6.15018923 22.60856069 17.51878186 28.52392578 26.90087891 C29.1251123 27.83706055 29.72629883 28.77324219 30.34570312 29.73779297 C45.65031234 53.57790256 52.89559854 76.21816112 47.49462891 104.96411133 C41.46808825 131.36148471 21.97694807 155.57268854 -0.47607422 169.90087891 C-7.24451685 173.7386026 -14.32050543 176.86539928 -21.47607422 179.90087891 C-22.18086914 180.21138184 -22.88566406 180.52188477 -23.61181641 180.84179688 C-42.35678493 189.05022691 -62.18490592 190.59023091 -82.41357422 190.33837891 C-83.91522125 190.32914902 -83.91522125 190.32914902 -85.44720459 190.31973267 C-99.96646188 190.22864155 -114.19928933 189.76450629 -128.47607422 186.90087891 C-130.22210938 186.5934375 -130.22210938 186.5934375 -132.00341797 186.27978516 C-151.48162469 182.24376034 -168.41828361 168.17231029 -183.47607422 155.90087891 C-184.61496094 155.01335937 -184.61496094 155.01335937 -185.77685547 154.10791016 C-198.86226892 143.48748441 -209.0084463 126.88190347 -210.77807617 110.02392578 C-210.91236861 107.07995638 -210.94403042 104.16019633 -210.91357422 101.21337891 C-210.90527588 100.16537109 -210.89697754 99.11736328 -210.88842773 98.03759766 C-210.26751167 69.2589115 -194.44313747 45.06324648 -174.76123047 25.15478516 C-155.3911732 6.92246987 -132.50273023 -4.94140837 -106.47607422 -10.09912109 C-105.63101318 -10.26847168 -104.78595215 -10.43782227 -103.9152832 -10.61230469 C-97.30941344 -11.88015138 -90.7403079 -12.67630467 -84.03857422 -13.22412109 C-83.02577393 -13.30758789 -82.01297363 -13.39105469 -80.96948242 -13.47705078 C-52.62084807 -15.71371946 -26.55558803 -9.63862689 0 0 Z " fill="#96CF90" transform="translate(380.47607421875,259.09912109375)"/>
<path d="M0 0 C4.04699649 3.73112778 5.07806582 8.76547231 6.36132812 13.93847656 C7.41351375 17.33475156 9.29572194 20.02336943 11.375 22.875 C12.12652344 23.90882813 12.87804687 24.94265625 13.65234375 26.0078125 C19.43472361 34.00304284 19.43472361 34.00304284 27 40 C26.98839844 40.92683594 26.97679687 41.85367188 26.96484375 42.80859375 C26.95582031 44.00613281 26.94679688 45.20367187 26.9375 46.4375 C26.92589844 47.63246094 26.91429687 48.82742188 26.90234375 50.05859375 C26.66098208 52.88873341 26.66098208 52.88873341 28 54 C30.64809574 72.13892407 30.64809574 72.13892407 26.96289062 78.90380859 C23.93543524 82.29907521 20.08971127 84.16651166 16 86 C15.13375 86.44988281 14.2675 86.89976562 13.375 87.36328125 C5.96031829 91.0079981 -1.11299453 91.20864292 -9.25 91.25 C-10.24902344 91.270625 -11.24804688 91.29125 -12.27734375 91.3125 C-24.47328803 91.37626964 -32.10918795 87.62899818 -40.8125 79.3125 C-47.07125801 69.83495215 -46.66877199 58.02832508 -47.125 47.0625 C-47.20384481 45.40041304 -47.2839302 43.73838448 -47.36523438 42.07641602 C-47.69540315 35.23700764 -47.98342244 28.39589552 -48.2734375 21.5546875 C-48.3478449 19.8489094 -48.42325405 18.14317448 -48.5 16.4375 C-48.53424072 15.67284424 -48.56848145 14.90818848 -48.60375977 14.12036133 C-48.91759426 7.9864488 -49.74211026 2.00856068 -51 -4 C-36.41018762 -7.99981273 -13.60471645 -6.18741997 0 0 Z " fill="#96CF90" transform="translate(146,391)"/>
<path d="M0 0 C5.63098413 4.78168281 5.63098413 4.78168281 6.06640625 9.0859375 C6.23781245 15.62643714 5.80320715 19.46617077 1.828125 24.73046875 C-3.01818774 29.10397049 -6.38746963 31.21188188 -12.890625 31.04296875 C-17.756819 30.37636683 -20.41406526 27.58799029 -23.546875 24.04296875 C-25.66018298 19.73507171 -26.10431263 16.4404742 -25.171875 11.73046875 C-23.11850309 7.12864316 -20.1054973 2.9027448 -16.171875 -0.26953125 C-11.01221168 -1.88607813 -4.81548709 -2.8148081 0 0 Z " fill="#59A05D" transform="translate(398.171875,351.26953125)"/>
<path d="M0 0 C3.99956735 3.53450138 6.30219154 5.98300505 7.17578125 11.40625 C7.49237679 16.81941287 7.55347304 21.35615227 4 25.6875 C-0.31166614 29.20005897 -4.81281384 29.29565334 -10.20703125 29.00390625 C-14.79122785 28.07553436 -17.53885796 26.09594748 -20.3125 22.375 C-23.19737907 17.67480586 -23.05243595 12.72065974 -22.3125 7.375 C-20.6814561 3.57372414 -18.53122054 1.15362701 -15.0625 -1.0625 C-9.57284124 -2.18538475 -5.11353742 -2.50852779 0 0 Z " fill="#599F5C" transform="translate(200.3125,356.625)"/>
</svg>
